<?xml version="1.0" standalone="no"?>
<!DOCTYPE svg PUBLIC "-//W3C//DTD SVG 20010904//EN" "http://www.w3.org/TR/2001/REC-SVG-20010904/DTD/svg10.dtd">
<!-- Created using Krita: https://krita.org -->
<svg xmlns="http://www.w3.org/2000/svg"
    xmlns:xlink="http://www.w3.org/1999/xlink"
    xmlns:krita="http://krita.org/namespaces/svg/krita"
    xmlns:sodipodi="http://sodipodi.sourceforge.net/DTD/sodipodi-0.dtd"
    width="30.72pt"
    height="30.72pt"
    viewBox="0 0 30.72 30.72">
	<defs>
		<linearGradient id="gradient0" gradientUnits="objectBoundingBox" x1="0" y1="0.499883693882298" x2="1" y2="0.499883693882298" spreadMethod="pad">
			<stop stop-color="#0782d8" offset="0" stop-opacity="1"/>
			<stop stop-color="#3facff" offset="1" stop-opacity="1"/>
		</linearGradient>
		<linearGradient id="gradient1" gradientUnits="objectBoundingBox" x1="-5.55111512312578e-17" y1="0.500183755972069" x2="1" y2="0.500183755972069" spreadMethod="pad">
			<stop stop-color="#fffefe" offset="0" stop-opacity="1"/>
			<stop stop-color="#d3d1d1" offset="1" stop-opacity="1"/>
		</linearGradient>
	</defs>
	<rect id="shape0" transform="matrix(0.580613718411548 0 0 0.580613718411548 4.58266028880863 5.04967148014437)" fill="url(#gradient0)" stroke-opacity="0" stroke="#000000" stroke-width="0" stroke-linecap="square" stroke-linejoin="bevel" width="43.57" height="42.99" rx="2.81" ry="2.81"/>
	<rect id="shape1" transform="matrix(0.580613718411548 0 0 0.580613718411548 14.3137462093862 5.04967148014437)" fill="#0862b1" stroke-opacity="0" stroke="#000000" stroke-width="0" stroke-linecap="square" stroke-linejoin="bevel" width="26.81" height="9.1" rx="1.6" ry="1.6"/>
	<rect id="shape2" transform="matrix(0.580613718411548 0 0 0.580613718411548 24.1435364620937 3.58652490974727)" fill="#3ccbf4" stroke-opacity="0" stroke="#000000" stroke-width="0" stroke-linecap="square" stroke-linejoin="bevel" width="3.55" height="8.48" rx="1.775" ry="1.78"/>
	<path id="shape3" transform="matrix(0.580613718411548 0 0 0.580613718411548 7.38702454873641 13.9214490974728)" fill="#fffefe" stroke-opacity="0" stroke="#000000" stroke-width="0" stroke-linecap="square" stroke-linejoin="bevel" d="M0 16.82L4.97 16.82L4.97 21.79L1.77636e-15 21.79ZM9.63 16.82L14.6 16.82L14.6 21.79L9.63 21.79ZM19.26 16.82L24.23 16.82L24.23 21.79L19.26 21.79ZM0 8.41L4.97 8.41L4.97 13.38L1.77636e-15 13.38ZM9.63 8.41L14.6 8.41L14.6 13.38L9.63 13.38ZM19.26 8.41L24.23 8.41L24.23 13.38L19.26 13.38ZM28.89 8.41L33.86 8.41L33.86 13.38L28.89 13.38ZM28.89 0L33.86 0L33.86 4.97L28.89 4.97ZM19.26 0L24.23 0L24.23 4.97L19.26 4.97ZM9.63 0L14.6 0L14.6 4.97L9.63 4.97Z" sodipodi:nodetypes="cccccccccccccccccccccccccccccccccccccccccccccccccc"/>
	<rect id="shape4" transform="matrix(0.580613718411548 0 0 0.580613718411548 0.930599999999993 1.0086)" fill="url(#gradient1)" stroke="#7e858d" stroke-width="2" stroke-linecap="butt" stroke-linejoin="miter" stroke-miterlimit="10" width="27.21" height="27.21" rx="13.605" ry="13.605"/>
	<path id="shape5" transform="matrix(0.580613718411548 0 0 0.580613718411548 4.58266028880863 5.53158086642596)" fill="none" stroke="#45494d" stroke-width="1" stroke-linecap="butt" stroke-linejoin="miter" stroke-miterlimit="2" d="M0 2.44L7.53 5.91M7.32 6.12L13.6 0" sodipodi:nodetypes="cccc"/>
	<rect id="shape6" transform="matrix(0.580613718411548 0 0 0.580613718411548 7.85732166064977 8.10950577617323)" fill="#000000" stroke-opacity="0" stroke="#000000" stroke-width="0" stroke-linecap="square" stroke-linejoin="bevel" width="3.35" height="3.35" rx="1.675" ry="1.675"/>
	<path id="shape7" transform="matrix(0.580613718411548 0 0 0.580613718411548 28.3878227436821 8.59141516245482)" fill="#0862b1" stroke-opacity="0" stroke="#000000" stroke-width="0" stroke-linecap="square" stroke-linejoin="bevel" d="M0 0L2.57 0L2.57 3L0 3Z" sodipodi:nodetypes="ccccc"/>
</svg>
